<svg width="62" height="62" viewBox="0 0 62 62" fill="none" xmlns="http://www.w3.org/2000/svg">
<rect width="62" height="62" rx="31" fill="white"/>
<path fill-rule="evenodd" clip-rule="evenodd" d="M20.37 14.21C20.37 13.8179 20.6879 13.5 21.08 13.5H21.24C21.6321 13.5 21.95 13.8179 21.95 14.21V20.61C21.95 21.0021 21.6321 21.32 21.24 21.32H21.08C20.6879 21.32 20.37 21.0021 20.37 20.61V14.21ZM21.08 13C20.4117 13 19.87 13.5417 19.87 14.21V18.37H15.25C14.0119 18.37 13 19.3819 13 20.62V24.31V30.4V36.48V42.57V46.36C13 47.5981 14.0119 48.61 15.25 48.61H20.29H27.34H34.38H41.42H46.46C47.6981 48.61 48.71 47.5981 48.71 46.36V43.11V36.48V30.4V24.31V20.62C48.71 19.3819 47.6981 18.37 46.46 18.37H42.71V14.21C42.71 13.5417 42.1683 13 41.5 13H41.34C40.6717 13 40.13 13.5417 40.13 14.21V18.37H22.45V14.21C22.45 13.5417 21.9083 13 21.24 13H21.08ZM20.54 48.11H27.09V42.82H20.54V48.11ZM20.04 42.82V48.11H15.25C14.2881 48.11 13.5 47.3219 13.5 46.36V42.82H20.04ZM20.54 42.32H27.09V36.73H20.54V42.32ZM20.04 36.73V42.32H13.5V36.73H20.04ZM20.54 36.23H27.09V30.65H20.54V36.23ZM20.04 30.65V36.23H13.5V30.65H20.04ZM20.54 30.15H27.09V24.56H20.54V30.15ZM20.04 24.56V30.15H13.5V24.56H20.04ZM20.29 24.06H27.34H34.38H41.42H48.21V20.62C48.21 19.6581 47.4219 18.87 46.46 18.87H42.71V20.61C42.71 21.2783 42.1683 21.82 41.5 21.82H41.34C40.6717 21.82 40.13 21.2783 40.13 20.61V18.87H22.45V20.61C22.45 21.2783 21.9083 21.82 21.24 21.82H21.08C20.4117 21.82 19.87 21.2783 19.87 20.61V18.87H15.25C14.2881 18.87 13.5 19.6581 13.5 20.62V24.06H20.29ZM34.13 48.11H27.59V42.82H33.6117C33.771 43.0218 33.9443 43.2122 34.13 43.3895V48.11ZM33.2605 42.32H27.59V36.73H33.1589C32.7015 37.5286 32.44 38.4537 32.44 39.44C32.44 40.4971 32.7404 41.484 33.2605 42.32ZM33.4828 36.23H27.59V30.65H34.13V35.4905C33.8929 35.7169 33.6762 35.9644 33.4828 36.23ZM34.13 30.15H27.59V24.56H34.13V30.15ZM41.17 48.11V43.8129C40.2585 44.4956 39.1265 44.9 37.9 44.9C36.6735 44.9 35.5415 44.4956 34.63 43.8129V48.11H41.17ZM46.46 48.11H41.67V43.3895L41.7007 43.36H48.21V46.36C48.21 47.3219 47.4219 48.11 46.46 48.11ZM34.63 30.15V24.56H41.17V30.15H34.63ZM34.63 35.0671V30.65H41.17V35.0671C40.2585 34.3844 39.1265 33.98 37.9 33.98C36.6735 33.98 35.5415 34.3844 34.63 35.0671ZM48.21 24.56H41.67V30.15H48.21V24.56ZM48.21 30.65H41.67V35.4905C41.9071 35.7169 42.1238 35.9644 42.3172 36.23H48.21V30.65ZM42.6411 36.73H48.21V42.86H42.1564C42.9094 41.9241 43.36 40.7347 43.36 39.44C43.36 38.4537 43.0985 37.5286 42.6411 36.73ZM41.34 13.5C40.9479 13.5 40.63 13.8179 40.63 14.21V20.61C40.63 21.0021 40.9479 21.32 41.34 21.32H41.5C41.8921 21.32 42.21 21.0021 42.21 20.61V14.21C42.21 13.8179 41.8921 13.5 41.5 13.5H41.34ZM37.9 34.48C35.1607 34.48 32.94 36.7007 32.94 39.44C32.94 42.1793 35.1607 44.4 37.9 44.4C40.6393 44.4 42.86 42.1793 42.86 39.44C42.86 36.7007 40.6393 34.48 37.9 34.48ZM35.4754 36.3419C35.6428 36.1954 35.9132 36.1796 36.0868 36.3532L37.2468 37.5132C37.2507 37.5171 37.2545 37.5212 37.2581 37.5254C37.4046 37.6928 37.4204 37.9632 37.2468 38.1368L36.9668 38.4168L36.7168 38.6668L36.6939 38.6895C36.6625 38.7205 36.6471 38.7356 36.6329 38.7603C36.6217 38.7799 36.6073 38.8136 36.6156 38.8821C36.6352 39.0421 36.7769 39.3729 37.3479 39.9843C37.9493 40.5601 38.2757 40.7036 38.4332 40.7247C38.5005 40.7337 38.5339 40.72 38.5535 40.7092C38.577 40.6961 38.5903 40.6834 38.6172 40.6576C38.6255 40.6498 38.635 40.6407 38.6464 40.63L38.8932 40.3832L39.1732 40.1032C39.1771 40.0993 39.1812 40.0955 39.1854 40.0919C39.3523 39.9458 39.6217 39.9297 39.7954 40.1018L40.9607 41.2373C41.146 41.4057 41.1464 41.7023 40.9622 41.8714L40.8868 41.9468C40.5831 42.2505 40.2751 42.4413 39.9525 42.5464C39.6314 42.6511 39.311 42.6659 38.99 42.6392C38.2627 42.5829 37.1698 42.074 36.2114 41.0949C36.1975 41.0807 36.1857 41.0653 36.1758 41.0491C35.2306 40.0882 34.7549 39.0034 34.7105 38.286C34.69 37.9774 34.6901 37.6722 34.7801 37.3658C34.8715 37.0547 35.0495 36.7617 35.354 36.4624L35.4632 36.3532C35.4671 36.3493 35.4712 36.3455 35.4754 36.3419ZM36.6044 40.7814C37.4958 41.677 38.464 42.0973 39.0292 42.1407L39.0308 42.1409C39.3095 42.1641 39.5588 42.1488 39.7975 42.0711C40.0349 41.9937 40.2769 41.8495 40.5332 41.5932L40.5709 41.5556L39.4855 40.498L39.2468 40.7368L38.9968 40.9868L38.9902 40.9933L38.9901 40.9932L38.9801 41.0029C38.9518 41.0307 38.8833 41.098 38.7959 41.1464C38.6836 41.2088 38.542 41.2438 38.3668 41.2203C38.0399 41.1765 37.6129 40.9309 36.9979 40.3413L36.997 40.3404L36.9918 40.3354L36.6044 40.7814ZM36.6044 40.7814C36.5941 40.7642 36.5816 40.748 36.5668 40.7332C35.6571 39.8236 35.2448 38.8278 35.2095 38.2546L35.2094 38.2534C35.19 37.9622 35.195 37.7276 35.2599 37.5067C35.3234 37.2906 35.4502 37.0688 35.7052 36.8184L35.7068 36.8168L35.775 36.7486L36.8514 37.825L36.6132 38.0632L36.3632 38.3132L36.3527 38.3235L36.3526 38.3235C36.3213 38.3536 36.2514 38.4208 36.1996 38.5109C36.1346 38.6238 36.0977 38.7664 36.1194 38.9429C36.1597 39.2723 36.4021 39.7049 36.9866 40.3299L36.6044 40.7814Z" fill="#C00686"/>
</svg>
