<svg width="62" height="62" viewBox="0 0 62 62" fill="none" xmlns="http://www.w3.org/2000/svg">
<rect width="62" height="62" rx="31" fill="white"/>
<path fill-rule="evenodd" clip-rule="evenodd" d="M22.8501 17.34C22.8501 12.9987 26.3676 9.5 30.7001 9.5C35.0322 9.5 38.5501 13.0083 38.5501 17.35C38.5501 17.6392 38.5308 17.9303 38.5014 18.2143L38.9988 18.2657C39.0294 17.9697 39.0501 17.6608 39.0501 17.35C39.0501 12.7317 35.308 9 30.7001 9C26.0926 9 22.3501 12.7213 22.3501 17.34C22.3501 21.9583 26.0922 25.69 30.7001 25.69V25.19C26.368 25.19 22.8501 21.6817 22.8501 17.34ZM14.1338 22.3728C14.9415 21.5656 16.2394 21.5657 17.0469 22.3732L22.0157 27.342L22.0163 27.3427C22.8365 28.1522 22.8227 29.461 22.0169 30.2668C21.8213 30.4624 21.6082 30.6729 21.3971 30.8816L21.3928 30.8858C21.1829 31.0933 20.975 31.2987 20.7869 31.4868C20.5962 31.6775 20.4106 31.8606 20.2418 32.0268L20.1898 32.0781L20.1892 32.0787C20.0412 32.2245 19.908 32.3556 19.7969 32.4668C19.7679 32.4958 19.738 32.525 19.7075 32.5548L19.7069 32.5553L19.7068 32.5555L19.7065 32.5558C19.5347 32.7236 19.3445 32.9095 19.1929 33.1737C19.02 33.475 18.8961 33.8854 18.9683 34.4785C19.1147 35.6809 20.067 37.6372 23.08 40.8728C23.0919 40.8808 23.1032 40.8899 23.1138 40.9002C26.3334 44.0099 28.286 45.0013 29.4888 45.1648C30.0785 45.2449 30.4888 45.1261 30.7915 44.9568C31.0553 44.8092 31.2424 44.6227 31.4119 44.4537L31.4119 44.4536L31.412 44.4536L31.412 44.4536C31.4436 44.422 31.4747 44.3911 31.5055 44.3611C32.0546 43.822 33.1031 42.7734 33.9133 41.9632C34.6215 41.255 35.7676 41.2571 36.484 41.9504L36.4849 41.9512L41.854 47.2004L41.8546 47.2009C42.5863 47.91 42.584 49.0912 41.8555 49.8082C41.383 50.2758 40.9124 50.6856 40.4419 51.043C40.4321 51.0585 40.4204 51.0732 40.4069 51.0868C40.3755 51.1181 40.3379 51.1394 40.298 51.1506C39.3142 51.8759 38.3302 52.375 37.331 52.6991C35.8066 53.1935 34.2616 53.2759 32.6508 53.1493C29.1643 52.8841 23.6449 50.3799 18.7083 45.3725C18.6919 45.3623 18.6763 45.3499 18.6621 45.3355C13.7028 40.3058 11.2755 34.6922 11.0506 31.186L11.0506 31.1856C10.9501 29.5775 10.9627 28.1172 11.384 26.6845C11.8067 25.2471 12.6347 23.8567 14.1338 22.3728ZM41.5042 49.4523C41.0804 49.8719 40.6597 50.2418 40.2407 50.5671L33.1283 43.4546C33.5121 43.0716 33.9117 42.6719 34.2654 42.3183L34.2655 42.3181L34.2669 42.3168C34.7785 41.8051 35.6121 41.8029 36.1357 42.3091L36.1363 42.3097L41.5053 47.5588L41.5062 47.5596C42.0339 48.0706 42.0361 48.929 41.5048 49.4518L41.5042 49.4523ZM31.8553 44.7184C32.09 44.488 32.4154 44.165 32.7742 43.8076L39.8351 50.8685C38.9471 51.4992 38.0651 51.9353 37.1767 52.2234C35.7337 52.6915 34.2588 52.7741 32.6897 52.6508L32.6891 52.6507C29.3465 52.3966 23.9099 49.9557 19.0185 44.9748C19.0042 44.9603 18.9885 44.9478 18.9719 44.9375C14.1027 39.9796 11.7641 34.4975 11.5496 31.1542C11.4501 29.5624 11.4675 28.1727 11.8637 26.8255C12.1174 25.9629 12.5289 25.1096 13.1755 24.229L20.2562 31.3097C20.1294 31.4356 20.0065 31.5568 19.8909 31.6707L19.8387 31.722C19.6909 31.8677 19.5561 32.0005 19.4433 32.1132C19.4196 32.137 19.3932 32.1626 19.3649 32.1902C19.1934 32.3569 18.9485 32.595 18.7592 32.9248C18.5328 33.3194 18.3867 33.8383 18.4719 34.539C18.6397 35.9171 19.7021 37.99 22.7674 41.2707C22.7849 41.2893 22.8045 41.3047 22.8256 41.3168C26.022 44.3934 28.0576 45.4748 29.4214 45.6602C30.1193 45.7551 30.6389 45.6151 31.0356 45.3932C31.3652 45.2088 31.6056 44.9679 31.7741 44.799L31.7742 44.7989L31.826 44.7472L31.8544 44.7192L31.8553 44.7184ZM20.6104 30.9568C20.7493 30.8188 20.8949 30.6749 21.0408 30.5307L21.0414 30.5301L21.0456 30.5259C21.257 30.3171 21.469 30.1076 21.6633 29.9132C22.2773 29.2993 22.2837 28.3085 21.6646 27.698L21.6633 27.6968L16.6933 22.7268C16.081 22.1144 15.0993 22.1144 14.4869 22.7268L14.486 22.7277C14.1077 23.1021 13.7752 23.4686 13.4834 23.8297L20.6104 30.9568ZM30.7001 12.04C27.7682 12.04 25.3901 14.4181 25.3901 17.35C25.3901 20.2819 27.7682 22.66 30.7001 22.66V23.16C27.492 23.16 24.8901 20.5581 24.8901 17.35C24.8901 14.1419 27.492 11.54 30.7001 11.54C33.9082 11.54 36.5101 14.1419 36.5101 17.35C36.5101 17.6417 36.4893 17.934 36.4474 18.2166L35.9528 18.1434C35.9909 17.886 36.0101 17.6183 36.0101 17.35C36.0101 14.4181 33.632 12.04 30.7001 12.04ZM30.4501 13.14V17.2365L28.2255 19.1818L28.5547 19.5582L30.8647 17.5382L30.9501 17.4635V17.35V13.14H30.4501ZM32.6901 22.39C32.6901 21.1519 33.702 20.14 34.9401 20.14H48.2501C49.1521 20.14 49.934 20.6771 50.2921 21.4474C50.3044 21.467 50.314 21.4883 50.3205 21.511C50.4361 21.7814 50.5001 22.0785 50.5001 22.39V23.0191V23.0209L50.5001 25.4613L50.5001 30.8988C50.5001 30.8995 50.5001 30.9003 50.5001 30.9011V32.78C50.5001 34.0181 49.4882 35.03 48.2501 35.03H46.2734L42.6358 41.2364C42.5787 41.3338 42.4635 41.3808 42.3546 41.3513C42.2457 41.3217 42.1701 41.2229 42.1701 41.11V35.03H34.9401C33.702 35.03 32.6901 34.0181 32.6901 32.78V32.4405V32.4396V29.2003V29.1997V25.51V22.82V22.39ZM50.0001 31.149V32.78C50.0001 33.7419 49.212 34.53 48.2501 34.53H46.1301C46.0414 34.53 45.9593 34.577 45.9144 34.6536L42.6701 40.189V34.78C42.6701 34.6419 42.5582 34.53 42.4201 34.53H37.769C38.9319 34.1704 40.105 33.7409 41.2757 33.3122L41.2764 33.3119C41.9273 33.0736 42.5775 32.8355 43.2249 32.6098C45.5137 31.812 47.7804 31.1635 50.0001 31.149ZM50.0001 30.6489C47.691 30.6635 45.3576 31.3369 43.0603 32.1377C42.3954 32.3694 41.7346 32.6114 41.0777 32.852L41.0774 32.8521C39.3668 33.4784 37.6825 34.0952 36.0213 34.497C35.9932 34.5038 35.9673 34.5151 35.9443 34.53H34.9401C33.9782 34.53 33.1901 33.7419 33.1901 32.78V32.6904C35.7664 32.6603 38.4913 31.6025 41.2305 30.5392L41.433 30.4606C44.2842 29.3544 47.1586 28.2637 50.0001 28.2212V30.6489ZM41.103 30.0523C38.3222 31.1315 35.6713 32.1603 33.1901 32.1904V29.4461C35.7672 29.3791 38.4886 28.508 41.2204 27.6335L41.495 27.5456C44.3409 26.6355 47.2005 25.7478 50.0001 25.711V27.7212C47.0494 27.7637 44.0884 28.894 41.2522 29.9944L41.103 30.0523ZM33.1901 28.9459V25.7583C35.8337 25.7227 38.6205 25.1322 41.416 24.5398L41.5232 24.5171C44.3683 23.9143 47.224 23.316 50.0001 23.2724V25.211C47.1101 25.2478 44.1778 26.1627 41.3427 27.0694L41.1046 27.1455C38.347 28.028 35.6893 28.8785 33.1901 28.9459ZM50.0001 22.39V22.7724C47.1637 22.8159 44.258 23.4265 41.4195 24.0279L41.3412 24.0445C38.5265 24.6409 35.7817 25.2225 33.1901 25.2583V23.0692C35.8464 23.0519 38.6468 22.7642 41.4573 22.4712L41.6034 22.4559C44.3988 22.1644 47.203 21.8719 49.9083 21.8322C49.9678 22.0076 50.0001 22.1952 50.0001 22.39ZM33.1901 22.5692V22.39C33.1901 21.4281 33.9782 20.64 34.9401 20.64H48.2501C48.8176 20.64 49.3246 20.9143 49.645 21.3367C46.9965 21.3907 44.2628 21.6758 41.5624 21.9575L41.4054 21.9738C38.5913 22.2673 35.8163 22.5519 33.1901 22.5692Z" fill="#C00686"/>
</svg>
