<svg width="66" height="66" viewBox="0 0 66 66" fill="none" xmlns="http://www.w3.org/2000/svg">
<g clip-path="url(#clip0_401_27397)">
<path d="M66 33C66 51.2292 51.2292 66 33 66C14.7708 66 0 51.2292 0 33C0 14.7708 14.7708 0 33 0C51.2292 0 66 14.7708 66 33Z" fill="#C00686"/>
<path d="M37.5672 39.6922C37.422 40.0354 37.1052 40.2862 36.6564 40.4578C36.2604 40.603 35.6664 40.6822 34.8612 40.6954V41.461H44.6028V40.6954C43.8108 40.6822 43.2168 40.603 42.7944 40.4446C42.306 40.273 41.9892 40.009 41.844 39.6658C41.712 39.349 41.646 38.953 41.646 38.4514V27.5614C41.646 26.7562 41.8572 26.1754 42.2664 25.8322C42.6492 25.5022 43.4148 25.3306 44.6028 25.3174V24.5518H37.686L30.8352 36.9994L23.9976 24.5518H16.9224V25.3174C17.8068 25.3306 18.4272 25.4098 18.8364 25.5814C19.2984 25.7662 19.5888 26.0698 19.6944 26.4526C19.7868 26.7958 19.8396 27.337 19.8396 28.0894V37.9102C19.8396 38.4778 19.8132 38.887 19.7736 39.1906C19.734 39.5206 19.602 39.7978 19.3908 40.0354C19.1796 40.273 18.8628 40.4446 18.4272 40.5634C18.0576 40.6558 17.556 40.7086 16.9224 40.7218V41.4874H24.0108V40.7218C23.3772 40.7086 22.8888 40.669 22.506 40.5766C22.0572 40.471 21.7404 40.2994 21.5292 40.0618C21.318 39.8242 21.186 39.547 21.1332 39.217C21.0804 38.9134 21.0672 38.5042 21.0672 37.9366V27.6274L21.45 27.535L29.1324 41.5138H29.8056L37.3956 27.535L37.7784 27.6274V38.491C37.7784 38.9662 37.7124 39.3886 37.5672 39.6922Z" fill="white"/>
<path d="M49.0775 22.0049H48.4043V44.0093H49.0775V22.0049Z" fill="white"/>
</g>
<defs>
<clipPath id="clip0_401_27397">
<rect width="66" height="66" fill="white"/>
</clipPath>
</defs>
</svg>
